# xmcd
#
# Track frame offsets:
#	150
#	22031
#	39327
#	61131
#	79433
#	102457
#	120796
#	143469
#	172635
#
# Disc length: 2769 seconds
# Revision: 0
# Processed by: cddbd v1.5.2PL0 Copyright (c) Steve Scherf et al.
# Submitted via: dBpowerAMP V12.0
#
DISCID=630acf09
DTITLE=Shaw Davis and The Black Ties - Tales From The West
DYEAR=2018
DGENRE=Alternative
TTITLE0=Take My Hand
TTITLE1=Willie The Pimp
TTITLE2=Tales From The West
TTITLE3=Mamma Told Me
TTITLE4=Fire Inside
TTITLE5=Know Where You Been
TTITLE6=Atomic Groove
TTITLE7=I Gotta Try You Girl
TTITLE8=My Friend
EXTD=
EXTT0=
EXTT1=
EXTT2=
EXTT3=
EXTT4=
EXTT5=
EXTT6=
EXTT7=
EXTT8=
PLAYORDER=
